<svg width="57" height="56" viewBox="0 0 57 56" fill="none" xmlns="http://www.w3.org/2000/svg">
<rect x="0.5" width="56" height="56" rx="8" fill="white"/>
<g clip-path="url(#clip0_1941_892)">
<path d="M26.59 31.117L26.9464 30.9539L26.9887 30.7062L26.1128 30.0055L26.4329 29.7156L26.149 28.5256L26.5115 28.5618L26.7531 28.0302L28.3055 19.7244L28.819 17.0484H29.3385L28.976 18.3653L30.7338 28.1933L30.8909 28.6041H31.3681L31.211 29.0994L31.2352 29.6491L31.3319 29.9632L30.8124 30.4585L30.4922 30.7062L30.7701 31.117" fill="white"/>
<path fill-rule="evenodd" clip-rule="evenodd" d="M43.6308 24.9616C42.9845 24.2428 42.1086 23.8199 41.1602 23.7776C40.6891 23.7595 40.2239 23.832 39.789 23.9951L40.2602 23.6629C41.9455 22.4668 42.4408 20.0808 41.3596 18.3411C40.8401 17.5075 40.0367 16.9397 39.1064 16.7464C38.1399 16.5471 37.1493 16.7585 36.3157 17.3505C36.0499 17.5377 35.8143 17.7612 35.5968 18.0089C36.2975 16.0457 35.4579 13.7986 33.6638 12.9287C33.1927 12.7052 32.6913 12.5844 32.1899 12.5844V13.2429C32.6007 13.2489 33.0054 13.3395 33.392 13.5268C34.5337 14.0704 35.2042 15.3027 35.2042 16.5833C35.2042 17.0243 35.1196 17.4833 34.9445 17.9183C34.9445 17.9183 33.3497 21.8809 32.1839 24.7683V31.1109L40.8521 31.1169C41.7945 31.1532 42.7006 30.8149 43.4013 30.1505C44.108 29.486 44.5127 28.5799 44.555 27.6074V27.3114C44.5369 26.4415 44.2107 25.614 43.6308 24.9616ZM32.1899 12.5844C31.755 12.5784 31.3201 12.663 30.9033 12.8321C29.967 13.2066 29.224 13.9617 28.8314 14.9644L28.7649 15.1577L28.6924 14.9644C28.2877 13.9617 27.5568 13.2066 26.6084 12.8321C25.7144 12.4697 24.7359 12.5059 23.8539 12.9287C22.0599 13.7986 21.2202 16.0457 21.921 18.0089C21.7035 17.7612 21.4679 17.5317 21.2082 17.3505C20.3746 16.7585 19.3839 16.5471 18.4174 16.7464C17.4751 16.9397 16.6777 17.5075 16.1643 18.3411C15.083 20.0808 15.5783 22.4668 17.2637 23.6629C17.2637 23.6629 17.4328 23.7837 17.7348 24.0011C17.2878 23.832 16.8287 23.7595 16.3576 23.7776C14.4487 23.8562 12.9507 25.4932 12.9507 27.4443L12.9567 27.6074C13.0413 29.631 14.7085 31.2076 16.6717 31.1169L26.8682 31.1109C27.0132 31.1109 27.134 31.0203 27.1763 30.8814C27.2185 30.7485 27.1702 30.5914 27.0554 30.5129L26.3125 29.9813L26.4937 29.9088C26.6024 29.8182 26.6447 29.6612 26.5964 29.5343L26.3245 28.8155L26.5601 28.888C26.6991 28.8698 26.8199 28.7672 26.844 28.6222L28.6622 18.7579C28.8374 17.9122 28.922 17.435 28.9643 17.1572H29.224C29.0066 17.4411 28.8435 17.8095 28.8435 18.2445C28.8435 18.3592 28.8616 18.48 28.8857 18.6069L28.8495 18.6975L28.8555 18.7639L30.6919 28.6222C30.716 28.7672 30.8308 28.8698 30.9697 28.888C31.0664 28.894 31.1449 28.8698 31.2053 28.8155L30.9335 29.5343L30.9093 29.6551C30.9093 29.7518 30.9456 29.8484 31.0241 29.9149L31.2114 29.9874L30.4684 30.5189C30.3536 30.5975 30.3053 30.7545 30.3415 30.8874C30.3838 31.0324 30.5107 31.1169 30.6496 31.1169H32.1839V24.7743C31.7067 25.9522 31.308 26.9429 31.1208 27.4261C30.8006 25.7227 29.5079 18.7942 29.4958 18.6975L29.52 18.6129L29.5079 18.5344C29.4898 18.4378 29.4717 18.3411 29.4717 18.2505C29.4717 17.5015 30.2268 17.133 30.269 17.1209C30.3838 17.0605 30.4563 16.9397 30.4563 16.8189L30.4503 16.7464C30.414 16.5954 30.2811 16.4866 30.1301 16.4927C30.1301 16.4927 29.5381 16.5048 29.1697 16.5048C29.1878 16.0396 29.2723 15.5624 29.4173 15.2181C29.7495 14.3906 30.3596 13.7684 31.1389 13.4543C31.4772 13.3153 31.8336 13.2489 32.1899 13.2549V12.5844Z" fill="white"/>
<path fill-rule="evenodd" clip-rule="evenodd" d="M30.6558 30.7787L39.3059 24.5931H39.3119C39.8495 24.2549 40.4717 24.0736 41.1483 24.1038C42.9302 24.1824 44.3196 25.7408 44.241 27.5893C44.1686 29.4316 42.6524 30.8633 40.8583 30.7847L30.6558 30.7787Z" fill="#00A63C"/>
<path fill-rule="evenodd" clip-rule="evenodd" d="M31.2354 29.6491L35.2342 19.229H35.2403V19.223C35.494 18.6008 35.9228 18.033 36.4967 17.6223C38.0491 16.5229 40.1029 16.9276 41.0936 18.5102C42.0842 20.1049 41.6312 22.2856 40.0848 23.385L31.2354 29.6491Z" fill="#0080CB"/>
<path fill-rule="evenodd" clip-rule="evenodd" d="M29.1757 18.6975L31.006 28.5618L35.2465 18.0451C35.9895 16.1967 35.2163 14.0402 33.531 13.2308C31.8336 12.4153 29.8644 13.2429 29.1274 15.0792C28.916 15.5987 28.8314 16.2994 28.8496 16.837L30.1422 16.8129C30.1422 16.8129 28.922 17.3807 29.212 18.6069" fill="#6355A1"/>
<path fill-rule="evenodd" clip-rule="evenodd" d="M26.8563 30.7787L18.2062 24.5991H18.2002C17.6746 24.2609 17.0404 24.0797 16.3699 24.1099C14.5818 24.1884 13.1985 25.7469 13.265 27.5953C13.3435 29.4376 14.8597 30.8693 16.6417 30.7907L26.8563 30.7787Z" fill="#F9BE00"/>
<path fill-rule="evenodd" clip-rule="evenodd" d="M26.2825 29.6491L22.2896 19.2291V19.2231C22.0359 18.6009 21.6131 18.0331 21.0332 17.6223C19.4747 16.5229 17.4209 16.9276 16.4303 18.5163C15.4396 20.111 15.8866 22.2917 17.439 23.3911L26.2825 29.6491Z" fill="#EC6C00"/>
<path fill-rule="evenodd" clip-rule="evenodd" d="M28.3483 18.6975L26.518 28.5618L22.2714 18.0451C21.5285 16.1967 22.3017 14.0402 23.987 13.2308C25.6844 12.4153 27.6536 13.2429 28.3966 15.0792C28.602 15.5987 28.6926 16.2994 28.6745 16.837C28.6745 16.837 28.6986 16.9941 28.3483 18.6975Z" fill="#C7113C"/>
<path fill-rule="evenodd" clip-rule="evenodd" d="M16.756 33.2674H16.6775C15.7714 33.2674 15.2519 33.9379 15.2519 34.5782C15.2519 35.2064 15.7593 35.8467 16.756 35.8467C17.2574 35.8467 17.9702 35.6957 18.1393 35.0856H20.7126C20.6281 36.1125 18.9729 36.9945 16.8466 36.9945H16.6775C14.0861 36.9401 12.6484 36.0944 12.6484 34.6266C12.6484 32.8627 14.4304 32.1257 16.5929 32.1257C19.9334 32.1257 20.5133 33.2916 20.6039 33.9017H18.1393C17.7346 33.3157 17.052 33.2674 16.756 33.2674Z" fill="#231815"/>
<path fill-rule="evenodd" clip-rule="evenodd" d="M23.9382 32.2767L26.5235 34.85V32.2767H28.7827V36.8978H25.5993L23.0925 34.2158V36.8978H20.9541V32.2767" fill="#231815"/>
<path fill-rule="evenodd" clip-rule="evenodd" d="M32.6247 33.1647H32.7757C33.2892 33.1647 33.5791 33.352 33.5791 33.5151C33.5791 33.6842 33.2771 33.8775 32.6911 33.8775H32.6247V34.9286H33.0355C33.5247 34.9286 33.7905 35.1641 33.7905 35.3514C33.7905 35.5205 33.5549 35.7018 33.0355 35.7018H32.6247V36.8918H33.3737C35.3611 36.8918 36.4665 36.1065 36.4665 35.4662C36.4665 34.989 36.1162 34.5178 35.198 34.3487C35.8081 34.1977 36.1524 33.8292 36.1524 33.4728C36.1524 32.8385 35.6208 32.2647 32.7938 32.2707H32.6247M31.6642 33.1647H32.6247V32.2767H29.3145V36.8978H32.6247V35.7078H31.5857V34.9346H32.6247V33.8835H31.6642V33.1647Z" fill="#231815"/>
<path fill-rule="evenodd" clip-rule="evenodd" d="M40.7375 33.2674H40.6529C39.7408 33.2674 39.2213 33.9379 39.2213 34.5782C39.2213 35.2064 39.7347 35.8467 40.7375 35.8467C41.2328 35.8467 41.9456 35.6957 42.1147 35.0856H44.688C44.6035 36.1125 42.9483 36.9945 40.8221 36.9945H40.659C38.0675 36.9401 36.6299 36.0944 36.6299 34.6266C36.6299 32.8627 38.4119 32.1257 40.5683 32.1257C43.9088 32.1257 44.5008 33.2916 44.5853 33.9017H42.1208C41.7825 33.2855 41.0214 33.2674 40.7375 33.2674Z" fill="#231815"/>
<path fill-rule="evenodd" clip-rule="evenodd" d="M20.3078 42.6726H18.6526V39.0905H16.2666V38.3234H22.6938V39.0905H20.3078" fill="#231815"/>
<path fill-rule="evenodd" clip-rule="evenodd" d="M29.0307 38.3234H30.7523L28.0642 42.6726H26.4876L23.8237 38.3234H25.5936L27.291 41.6155H27.3152" fill="#231815"/>
<path fill-rule="evenodd" clip-rule="evenodd" d="M31.7856 39.1147H32.0091C33.4951 39.1147 33.8878 38.6918 33.924 38.3717H35.1925V42.6726H33.6461V39.7127H31.7856" fill="#231815"/>
<path fill-rule="evenodd" clip-rule="evenodd" d="M39.1124 38.3717C40.7132 38.3777 41.5589 38.9033 41.5589 39.4892C41.5589 39.8577 41.281 40.1718 40.6588 40.359C41.4079 40.5644 41.8247 40.8362 41.8247 41.392C41.8247 41.9417 41.1904 42.7874 39.1124 42.7874V42.1108H39.1245C39.9279 42.1108 40.236 41.7303 40.236 41.4343C40.236 41.1322 39.9581 40.7638 39.1124 40.7577V40.1174H39.1245C39.7286 40.1174 40.085 39.8939 40.085 39.5798C40.085 39.2476 39.6742 39.0422 39.1849 39.0422L39.1185 39.0482M39.1124 42.7874C37.1009 42.7874 36.4062 42.0685 36.4062 41.4826C36.4062 41.2651 36.4062 40.6973 37.5962 40.3953C36.9801 40.2261 36.6479 39.9543 36.6479 39.5556C36.6479 38.8247 37.7171 38.3777 39.0822 38.3777H39.1124V39.0543C38.4661 39.0664 38.1218 39.2778 38.1218 39.5858C38.1218 39.8395 38.46 40.1174 39.1124 40.1235V40.7638H39.0943C38.5325 40.7638 37.9889 40.9631 37.9889 41.4282C37.9889 41.839 38.4117 42.1108 39.1124 42.1169V42.7874Z" fill="#231815"/>
</g>
<defs>
<clipPath id="clip0_1941_892">
<rect width="32" height="32" fill="white" transform="translate(12.5 12)"/>
</clipPath>
</defs>
</svg>
