<svg width="168" height="56" viewBox="0 0 168 56" fill="none" xmlns="http://www.w3.org/2000/svg">
<rect width="168" height="56" rx="8" fill="white"/>
<g clip-path="url(#clip0_1941_938)">
<path d="M82.6761 13.0206C63.8484 23.3951 45.0206 5.79211 12.144 15.3261V42.5831C45.0206 33.0491 63.8484 50.6521 82.6761 40.3017V13.0206Z" fill="#4AA435"/>
<path d="M156.234 13.0207H82.6763V40.2057H156.234V13.0207Z" fill="#005DA0"/>
<path d="M20.5254 32.9291H17.7637V22.3625H20.4053V23.6593C20.6695 23.179 21.0777 22.7947 21.6541 22.5066C22.2305 22.2184 22.8068 22.0743 23.4072 22.0743C24.8961 22.0743 25.9048 22.6507 26.4331 23.8274C27.1776 22.6507 28.2582 22.0743 29.6751 22.0743C30.7078 22.0743 31.5963 22.4105 32.3168 23.0829C33.0372 23.7553 33.3974 24.764 33.3974 26.0848V32.9291H30.7078V26.6612C30.7078 26.0608 30.5637 25.5805 30.2515 25.2203C29.9633 24.86 29.507 24.6679 28.8826 24.6679C28.3063 24.6679 27.85 24.86 27.5138 25.2683C27.1776 25.6765 26.9854 26.1568 26.9854 26.7572V32.9291H24.2477V26.6612C24.2477 26.0608 24.1036 25.5805 23.7914 25.2203C23.4792 24.86 23.023 24.6679 22.4466 24.6679C21.8702 24.6679 21.3899 24.86 21.0537 25.2683C20.6935 25.6525 20.5254 26.1568 20.5254 26.7572" fill="white"/>
<path d="M36.9276 23.6353C37.9362 22.5786 39.233 22.0503 40.77 22.0503C42.3069 22.0503 43.5797 22.5786 44.6124 23.6353C45.621 24.6919 46.1493 26.0368 46.1493 27.6458C46.1493 29.2548 45.645 30.5996 44.6124 31.6563C43.5797 32.7129 42.3069 33.2413 40.77 33.2413C39.233 33.2413 37.9602 32.7129 36.9276 31.6563C35.919 30.5996 35.3906 29.2548 35.3906 27.6458C35.4146 26.0368 35.919 24.6919 36.9276 23.6353ZM38.9448 29.8551C39.4492 30.3835 40.0736 30.6476 40.794 30.6476C41.5145 30.6476 42.1388 30.3835 42.6432 29.8551C43.1475 29.3268 43.4116 28.5823 43.4116 27.6458C43.4116 26.7092 43.1475 25.9647 42.6432 25.4364C42.1388 24.908 41.5145 24.6439 40.794 24.6439C40.0736 24.6439 39.4492 24.908 38.9448 25.4364C38.4405 25.9647 38.1764 26.7092 38.1764 27.6458C38.1764 28.6064 38.4165 29.3268 38.9448 29.8551Z" fill="white"/>
<path d="M51.0967 26.8533V32.9291H48.335V22.3625H51.0246V23.6593C51.3128 23.155 51.7211 22.7467 52.2734 22.4825C52.8018 22.2184 53.3781 22.0743 53.9785 22.0743C55.1792 22.0743 56.1158 22.4585 56.7402 23.251C57.3646 24.0195 57.6768 25.0281 57.6768 26.2769V32.9291H54.8911V26.7572C54.8911 26.1328 54.723 25.6285 54.4348 25.2443C54.1226 24.86 53.6423 24.6679 53.0179 24.6679C52.4415 24.6679 51.9612 24.8841 51.625 25.2923C51.2648 25.7006 51.0967 26.2289 51.0967 26.8533Z" fill="white"/>
<path d="M67.3301 29.2068L69.6356 29.9032C69.3474 30.8878 68.8191 31.6803 68.0026 32.3047C67.186 32.9291 66.1774 33.2413 64.9767 33.2413C63.5117 33.2413 62.263 32.737 61.2303 31.7043C60.1977 30.6717 59.6934 29.3028 59.6934 27.5978C59.6934 25.9648 60.1977 24.6199 61.1823 23.5873C62.1909 22.5546 63.3677 22.0263 64.7125 22.0263C66.2975 22.0263 67.5223 22.5066 68.4348 23.4912C69.3234 24.4758 69.7797 25.7966 69.7797 27.5017V27.886V28.2222L69.7556 28.3663H62.4311C62.4551 29.0627 62.7193 29.6391 63.2236 30.0953C63.7279 30.5516 64.3283 30.7918 65.0247 30.7918C66.1774 30.8158 66.9699 30.2634 67.3301 29.2068ZM62.4791 26.4451H67.066C67.042 25.8687 66.8258 25.3644 66.4656 24.9561C66.0814 24.5479 65.529 24.3557 64.7845 24.3557C64.1121 24.3557 63.5838 24.5719 63.1515 25.0042C62.7433 25.4364 62.5271 25.9167 62.4791 26.4451Z" fill="white"/>
<path d="M75.3755 37.1077H72.4217L74.8472 31.6082L70.5005 22.3625H73.5984L76.3121 28.5583L78.8337 22.3625H81.7875" fill="white"/>
<path d="M88.9442 24.716C88.1997 24.716 87.5994 24.9801 87.0951 25.5085C86.5907 26.0368 86.3506 26.7572 86.3506 27.6698C86.3506 28.5824 86.6148 29.3028 87.1191 29.8552C87.6234 30.3835 88.2478 30.6717 88.9922 30.6717C89.6406 30.6717 90.169 30.5036 90.5532 30.1434C90.9375 29.7831 91.2016 29.3749 91.3457 28.8946L93.7712 29.7351C93.5311 30.7197 92.9787 31.5362 92.1382 32.2567C91.2977 32.9531 90.241 33.3133 88.9682 33.3133C87.4313 33.3133 86.1585 32.785 85.1258 31.7043C84.0932 30.6477 83.5889 29.3028 83.5889 27.6938C83.5889 26.0848 84.0932 24.74 85.1258 23.6833C86.1345 22.6267 87.4073 22.0983 88.8962 22.0983C90.193 22.0983 91.2737 22.4586 92.0902 23.131C92.9307 23.8274 93.459 24.6679 93.6992 25.6525L91.2256 26.5171C90.8894 25.3163 90.1209 24.716 88.9442 24.716Z" fill="white"/>
<path d="M96.4364 23.6593C97.445 22.6026 98.7418 22.0743 100.279 22.0743C101.816 22.0743 103.089 22.6026 104.121 23.6593C105.154 24.7159 105.658 26.0608 105.658 27.6698C105.658 29.2788 105.154 30.6236 104.121 31.6803C103.113 32.737 101.816 33.2653 100.279 33.2653C98.7418 33.2653 97.469 32.737 96.4364 31.6803C95.4277 30.6236 94.8994 29.2788 94.8994 27.6698C94.9234 26.0608 95.4277 24.7159 96.4364 23.6593ZM98.4296 29.9032C98.9339 30.4315 99.5583 30.6957 100.279 30.6957C100.999 30.6957 101.624 30.4315 102.128 29.9032C102.632 29.3749 102.896 28.6304 102.896 27.6938C102.896 26.7572 102.632 26.0128 102.128 25.4844C101.624 24.9561 100.999 24.6919 100.279 24.6919C99.5583 24.6919 98.9339 24.9561 98.4296 25.4844C97.9253 26.0128 97.6611 26.7572 97.6611 27.6938C97.6852 28.6304 97.9253 29.3749 98.4296 29.9032Z" fill="white"/>
<path d="M110.605 26.8773V32.9531H107.844V22.3865H110.533V23.6833C110.822 23.179 111.23 22.7707 111.782 22.5066C112.311 22.2424 112.887 22.0983 113.487 22.0983C114.688 22.0983 115.625 22.4826 116.249 23.2751C116.873 24.0676 117.186 25.0522 117.186 26.301V32.9531H114.424V26.7813C114.424 26.1569 114.256 25.6525 113.968 25.2683C113.655 24.8841 113.175 24.6919 112.551 24.6919C111.974 24.6919 111.494 24.9081 111.158 25.3163C110.774 25.7246 110.605 26.2529 110.605 26.8773Z" fill="white"/>
<path d="M123.381 19.2406V22.3865H125.447V24.9081H123.381V29.3269C123.381 29.7591 123.477 30.0953 123.67 30.2635C123.862 30.4556 124.174 30.5516 124.582 30.5516C124.966 30.5516 125.231 30.5276 125.423 30.4556V32.809C125.014 32.9771 124.51 33.0732 123.862 33.0732C122.853 33.0732 122.085 32.785 121.484 32.2087C120.908 31.6323 120.62 30.8398 120.62 29.8072V24.8841H118.771V22.3625H119.299C119.803 22.3625 120.211 22.2184 120.476 21.9062C120.74 21.594 120.884 21.1858 120.884 20.6815V19.1925" fill="white"/>
<path d="M133.9 22.3625V25.2443C133.612 25.1962 133.348 25.1482 133.06 25.1482C132.267 25.1482 131.643 25.3884 131.138 25.8446C130.658 26.3009 130.418 27.0694 130.418 28.1261V32.9531H127.656V22.3865H130.346V23.9475C130.85 22.8428 131.811 22.2904 133.252 22.2904C133.396 22.3144 133.612 22.3384 133.9 22.3625Z" fill="white"/>
<path d="M136.494 23.6593C137.502 22.6026 138.799 22.0743 140.336 22.0743C141.873 22.0743 143.146 22.6026 144.178 23.6593C145.187 24.7159 145.715 26.0608 145.715 27.6698C145.715 29.2788 145.211 30.6236 144.178 31.6803C143.17 32.737 141.873 33.2653 140.336 33.2653C138.799 33.2653 137.526 32.737 136.494 31.6803C135.485 30.6236 134.957 29.2788 134.957 27.6698C134.981 26.0608 135.485 24.7159 136.494 23.6593ZM138.511 29.9032C139.015 30.4315 139.639 30.6957 140.36 30.6957C141.08 30.6957 141.681 30.4315 142.209 29.9032C142.713 29.3749 142.978 28.6304 142.978 27.6938C142.978 26.7572 142.713 26.0128 142.209 25.4844C141.705 24.9561 141.08 24.6919 140.36 24.6919C139.639 24.6919 139.015 24.9561 138.511 25.4844C138.006 26.0128 137.742 26.7572 137.742 27.6938C137.742 28.6304 137.982 29.3749 138.511 29.9032Z" fill="white"/>
<path d="M150.663 17.4154H147.901V32.9531H150.663V17.4154Z" fill="white"/>
</g>
<defs>
<clipPath id="clip0_1941_938">
<rect width="144" height="32" fill="white" transform="translate(12 12)"/>
</clipPath>
</defs>
</svg>
