<svg width="56" height="56" viewBox="0 0 56 56" fill="none" xmlns="http://www.w3.org/2000/svg">
<g clip-path="url(#clip0_1558_739)">
<path d="M45.5 32.0775V39.69C45.5 42.455 43.8725 44.9225 41.3525 46.0775C38.29 47.4775 33.6525 49 28 49C22.3475 49 17.71 47.4775 14.63 46.0775C12.1275 44.9225 10.5 42.455 10.5 39.69V32.0775L22.9425 37.765C24.535 38.5 26.25 38.8675 28 38.8675C29.75 38.8675 31.465 38.5 33.0575 37.765L45.5 32.0775Z" fill="#FFDC54"/>
<path d="M52.5 28.875V40.25C52.5 41.2125 51.7125 42 50.75 42C49.7875 42 49 41.2125 49 40.25V30.485L52.5 28.875Z" fill="#FFDC54"/>
<path d="M24.3915 34.587C25.5378 35.1103 26.768 35.3727 28 35.3727C29.232 35.3727 30.4605 35.112 31.6085 34.587L53.9577 24.3705C55.2178 23.7948 56 22.575 56 21.1873C56 19.7995 55.2178 18.578 53.9577 18.0022L31.6085 7.7875C29.3143 6.73925 26.6875 6.73925 24.3932 7.7875L2.04225 18.0005C0.78225 18.578 0 19.7978 0 21.1855C0 22.5733 0.78225 23.793 2.04225 24.3705L24.3915 34.587Z" fill="#FFDC54"/>
</g>
<defs>
<clipPath id="clip0_1558_739">
<rect width="56" height="56" fill="white"/>
</clipPath>
</defs>
</svg>
