<svg width="196" height="56" viewBox="0 0 196 56" fill="none" xmlns="http://www.w3.org/2000/svg">
<rect width="195.5" height="56" rx="8" fill="white"/>
<g clip-path="url(#clip0_1941_868)">
<mask id="mask0_1941_868" style="mask-type:luminance" maskUnits="userSpaceOnUse" x="12" y="12" width="258" height="32">
<path d="M270 12H12V44H270V12Z" fill="white"/>
</mask>
<g mask="url(#mask0_1941_868)">
<path d="M183.395 36.9085H175.375V36.4975C175.466 36.4855 175.558 36.476 175.649 36.46C176.023 36.4258 176.372 36.2596 176.634 35.991C176.896 35.7225 177.054 35.3693 177.079 34.995C177.117 34.7232 177.136 34.449 177.136 34.1745C177.139 30.6412 177.139 27.1078 177.136 23.5745C177.153 23.0607 177.059 22.5493 176.862 22.0745C176.732 21.7391 176.518 21.4424 176.241 21.2124C175.964 20.9825 175.633 20.8268 175.28 20.76C175.034 20.7032 174.778 20.7079 174.535 20.7737C174.291 20.8394 174.068 20.9642 173.885 21.137C173.519 21.4477 173.226 21.8344 173.025 22.2701C172.825 22.7057 172.721 23.1799 172.723 23.6595C172.715 26.0345 172.723 28.4095 172.723 30.785C172.723 31.907 172.719 33.029 172.723 34.1505C172.724 34.4129 172.742 34.675 172.777 34.935C172.807 35.3145 172.967 35.6719 173.231 35.9463C173.495 36.2208 173.846 36.3952 174.224 36.44C174.341 36.4615 174.459 36.476 174.605 36.498V36.8835H166.542V36.506C166.715 36.4765 166.888 36.4485 167.061 36.4165C167.546 36.3499 167.989 36.1058 168.305 35.7314C168.62 35.357 168.786 34.8788 168.769 34.3895C168.776 32.802 168.769 31.2145 168.769 29.627C168.769 24.698 168.768 19.7687 168.765 14.839C168.77 14.4938 168.732 14.1493 168.652 13.8135C168.57 13.4423 168.375 13.1059 168.093 12.8515C167.81 12.5971 167.456 12.4375 167.078 12.395C166.914 12.3675 166.748 12.345 166.551 12.3145C166.542 12.2255 166.532 12.125 166.52 12.0015H172.766C172.766 12.1515 172.766 12.294 172.766 12.4335C172.743 14.5835 172.712 16.73 172.702 18.878C172.698 19.5575 172.745 20.2375 172.772 20.9165C172.777 21.0315 172.801 21.146 172.828 21.355L173.108 20.9975C173.704 20.1774 174.568 19.5914 175.55 19.341C176.663 19.0672 177.837 19.1985 178.862 19.7115C179.517 20.0448 180.047 20.58 180.375 21.238C180.713 21.9106 180.931 22.6372 181.02 23.385C181.185 24.8925 181.199 26.4127 181.061 27.923C180.974 29.4115 180.886 30.9005 180.83 32.39C180.807 33.0592 180.872 33.7285 181.025 34.3805C181.059 34.5313 181.102 34.6802 181.153 34.8265C181.275 35.3197 181.567 35.7544 181.976 36.0557C182.385 36.357 182.887 36.5058 183.395 36.4765L183.395 36.9085Z" fill="black"/>
<path d="M35.9004 36.505V36.8815H27.8214V36.504C28.0299 36.4685 28.2324 36.449 28.4259 36.3985C28.8912 36.2976 29.3071 36.0387 29.6031 35.6658C29.8991 35.2929 30.0568 34.829 30.0494 34.353C30.0401 27.8003 30.0361 21.248 30.0374 14.696C30.0364 14.3507 29.9842 14.0075 29.8824 13.6775C29.7861 13.3478 29.5971 13.0526 29.3378 12.8273C29.0785 12.602 28.7599 12.4559 28.4199 12.4065C28.2334 12.369 28.0429 12.35 27.8234 12.3175C27.8149 12.2255 27.8059 12.1255 27.7949 12.0025H33.9814C33.9854 12.139 33.9939 12.2765 33.9934 12.414C33.9904 14.825 33.9824 17.2365 33.9854 19.647C33.9854 20.112 34.0254 20.577 34.0519 21.041C34.0658 21.1394 34.086 21.2367 34.1124 21.3325C34.2324 21.1785 34.3174 21.07 34.4019 20.9615C34.7267 20.5084 35.1388 20.1248 35.614 19.8333C36.0892 19.5418 36.6178 19.3482 37.1689 19.264C38.2037 19.0961 39.265 19.2667 40.1949 19.7505C40.9136 20.1457 41.476 20.7741 41.7894 21.532C42.1131 22.3038 42.3077 23.1236 42.3654 23.9585C42.4613 25.3399 42.4473 26.7268 42.3234 28.106C42.2329 29.5465 42.1539 30.9885 42.0989 32.4305C42.0715 33.0996 42.1388 33.7692 42.2989 34.4195C42.3684 34.709 42.466 34.991 42.5904 35.2615C42.7262 35.576 42.9419 35.8494 43.2163 36.0545C43.4906 36.2596 43.8139 36.3893 44.1539 36.4305C44.3069 36.4525 44.4594 36.477 44.6359 36.5035V36.888H36.6359V36.499C36.7249 36.487 36.8049 36.4785 36.8859 36.4645C37.271 36.4272 37.6304 36.2544 37.9 35.9769C38.1696 35.6993 38.3319 35.3351 38.3579 34.949C38.3939 34.689 38.4121 34.4269 38.4124 34.1645C38.4164 30.6432 38.4174 27.122 38.4154 23.601C38.441 22.9898 38.3018 22.383 38.0124 21.844C37.8618 21.5646 37.6505 21.3225 37.394 21.1354C37.1376 20.9484 36.8425 20.8211 36.5304 20.763C36.2912 20.7053 36.0413 20.7081 35.8034 20.7713C35.5655 20.8344 35.3471 20.9558 35.1679 21.1245C34.8027 21.4354 34.5094 21.8219 34.308 22.2572C34.1067 22.6926 34.0023 23.1664 34.0019 23.646C33.9924 25.6515 33.9989 27.6565 33.9989 29.662C33.9989 31.166 33.9964 32.6695 33.9989 34.1735C33.9993 34.4243 34.016 34.6749 34.0489 34.9235C34.0774 35.3095 34.2403 35.6733 34.5094 35.9515C34.7785 36.2297 35.1366 36.4047 35.5214 36.446C35.6379 36.4665 35.7544 36.4815 35.9004 36.5035" fill="black"/>
<path d="M14.5431 36.8905V36.518C14.8481 36.4585 15.1431 36.413 15.4281 36.3425C15.905 36.2243 16.3505 36.0037 16.7336 35.696C17.0461 35.4643 17.2981 35.1608 17.4685 34.8111C17.639 34.4614 17.7227 34.0759 17.7126 33.687C17.7013 28.0653 17.6993 22.4432 17.7066 16.8205C17.7066 16.0685 17.7066 15.3167 17.7066 14.565C17.7066 14.139 17.6601 14.0935 17.2226 14.12C16.55 14.1716 15.9115 14.4366 15.4001 14.8765C14.8775 15.3155 14.4386 15.8453 14.1046 16.4405C13.5121 17.4915 13.0785 18.6244 12.8181 19.8025C12.5771 20.8204 12.4388 21.86 12.4051 22.9055H12.0726C12.0001 22.6175 11.9721 14.035 12.0366 13.4775C12.2866 13.4 27.0841 13.366 27.7786 13.4445V22.901L27.4651 22.933C27.4517 22.8807 27.4415 22.8276 27.4346 22.774C27.3738 21.426 27.1385 20.0915 26.7346 18.804C26.4628 17.8879 26.0698 17.0121 25.5661 16.2C25.2116 15.6163 24.7453 15.1082 24.1941 14.705C23.7398 14.37 23.2012 14.1679 22.6386 14.1215C22.1836 14.0915 22.1351 14.1385 22.1351 14.5815C22.1351 16.9215 22.1351 19.2612 22.1351 21.6005C22.1351 25.623 22.1451 29.646 22.1286 33.6685C22.1132 34.1358 22.2285 34.5981 22.4616 35.0035C22.6946 35.4088 23.0361 35.7411 23.4476 35.963C24.0038 36.2828 24.6286 36.4642 25.2696 36.492V36.888L14.5431 36.8905Z" fill="black"/>
<path d="M66.2145 36.8865V36.5185C66.531 36.459 66.8485 36.4185 67.156 36.337C67.7036 36.2002 68.2059 35.9225 68.613 35.5315C68.8567 35.3017 69.049 35.0229 69.177 34.7134C69.3051 34.4039 69.3661 34.0708 69.356 33.736C69.3487 28.997 69.3473 24.2578 69.352 19.5185C69.352 17.8712 69.352 16.2237 69.352 14.576C69.352 14.143 69.3055 14.096 68.8795 14.119C68.304 14.1594 67.7521 14.3641 67.2895 14.709C66.8243 15.0467 66.4228 15.4646 66.104 15.943C65.4056 17.0008 64.8979 18.1729 64.604 19.406C64.3048 20.5002 64.1346 21.6257 64.097 22.7595C64.097 22.8055 64.0855 22.8515 64.0775 22.9135H63.7975C63.7155 22.6605 63.6945 13.8745 63.777 13.4325H79.422V22.8765C79.3934 22.8964 79.3616 22.9115 79.328 22.921C79.26 22.928 79.19 22.921 79.108 22.921C79.0951 22.8717 79.0858 22.8216 79.08 22.771C79.0255 21.4824 78.8151 20.2051 78.4535 18.967C78.204 18.0696 77.8428 17.207 77.3785 16.3995C77.0281 15.7716 76.5565 15.2196 75.991 14.7755C75.5193 14.4051 74.9507 14.1789 74.3535 14.124C73.8615 14.085 73.809 14.1375 73.809 14.6205C73.809 19.5148 73.809 24.4092 73.809 29.3035C73.809 30.748 73.8235 32.193 73.804 33.637C73.7855 34.1174 73.9044 34.5932 74.1467 35.0084C74.389 35.4237 74.7447 35.7612 75.172 35.9815C75.7123 36.2858 76.3158 36.4607 76.935 36.4925V36.8875L66.2145 36.8865Z" fill="black"/>
<path d="M98.8164 36.4965C98.8269 36.5475 98.8342 36.5991 98.8384 36.651C98.8384 36.722 98.8299 36.7925 98.8239 36.885H90.3164C90.3104 36.823 90.3014 36.767 90.3004 36.711C90.2994 36.655 90.3049 36.5935 90.3089 36.5135C90.4589 36.485 90.6089 36.455 90.7589 36.4295C91.0551 36.3826 91.3365 36.2684 91.5815 36.0955C91.8265 35.9226 92.0285 35.6958 92.1719 35.4325C92.4193 34.9938 92.5604 34.5031 92.5839 34C92.5959 33.8335 92.5929 33.666 92.5929 33.5C92.5929 27.4843 92.5912 21.4687 92.5879 15.453C92.5956 14.929 92.5529 14.4054 92.4604 13.8895C92.415 13.4857 92.2259 13.1117 91.9277 12.8357C91.6295 12.5597 91.242 12.4001 90.8359 12.386C90.6714 12.3605 90.5069 12.3415 90.3214 12.316V12H96.5339C96.5389 12.15 96.5474 12.3 96.5479 12.45C96.5479 17.045 96.5479 21.6402 96.5479 26.2355C96.5479 28.7185 96.5479 31.2018 96.5479 33.6855C96.5345 34.1522 96.6234 34.6163 96.8084 35.045C96.9578 35.4253 97.2068 35.7585 97.5292 36.0095C97.8516 36.2606 98.2356 36.4203 98.6409 36.472C98.6979 36.4795 98.7544 36.488 98.8184 36.4975" fill="black"/>
<path d="M124.889 19.7695V19.455H131.268V20.8345C131.424 20.708 131.512 20.6345 131.602 20.5625C131.995 20.2515 132.376 19.923 132.784 19.6335C133.457 19.1207 134.295 18.8732 135.139 18.938C135.756 18.969 136.357 19.1468 136.893 19.4565C137.428 19.7662 137.881 20.199 138.216 20.719C138.56 21.2296 138.712 21.8456 138.645 22.4576C138.578 23.0696 138.296 23.6381 137.849 24.062C137.601 24.3236 137.288 24.5156 136.943 24.6192C136.597 24.7228 136.231 24.7343 135.879 24.6525C135.384 24.5912 134.917 24.3857 134.537 24.0616C134.157 23.7374 133.881 23.3088 133.742 22.829C133.615 22.3523 133.64 21.8476 133.815 21.386C133.884 21.2542 133.918 21.1067 133.914 20.9579C133.91 20.809 133.867 20.6637 133.791 20.536C133.491 20.3899 133.146 20.3655 132.828 20.468C132.511 20.5706 132.245 20.792 132.088 21.086C131.712 21.671 131.476 22.3344 131.398 23.025C131.318 23.5555 131.276 24.091 131.271 24.6275C131.26 27.7425 131.266 30.8575 131.266 33.973C131.216 34.5823 131.408 35.1868 131.801 35.6549C132.195 36.1231 132.757 36.4171 133.366 36.473C133.412 36.4815 133.46 36.487 133.532 36.4975V36.8895H124.89V36.5095C124.993 36.4915 125.096 36.472 125.199 36.4565C125.74 36.368 126.233 36.0924 126.592 35.6777C126.952 35.263 127.154 34.7355 127.164 34.187C127.167 34.092 127.167 33.9965 127.167 33.901C127.167 30.1413 127.167 26.3815 127.167 22.6215C127.179 22.2151 127.123 21.8097 127.002 21.4215C126.889 20.9899 126.647 20.6031 126.309 20.3132C125.97 20.0233 125.55 19.8442 125.106 19.8L124.887 19.7705" fill="black"/>
<path d="M166.925 24.234C166.618 23.078 166.099 21.9886 165.396 21.0205C164.884 20.2935 164.186 19.7175 163.374 19.3525C162.753 19.0459 162.056 18.9277 161.369 19.0123C160.682 19.097 160.034 19.3809 159.506 19.829C159.228 20.053 158.975 20.309 158.709 20.5485C158.654 20.5985 158.591 20.6385 158.479 20.7235V19.455H152.075V19.76C152.203 19.7865 152.317 19.8155 152.433 19.8325C152.975 19.9409 153.462 20.2324 153.813 20.658C154.164 21.0836 154.358 21.6172 154.362 22.169C154.344 28.6397 154.342 35.1102 154.358 41.5805C154.363 41.8259 154.315 42.0695 154.216 42.2941C154.117 42.5188 153.97 42.7189 153.785 42.8805C153.46 43.1819 153.064 43.3974 152.635 43.5075C152.43 43.561 152.219 43.5915 152.004 43.6335C151.995 43.7655 151.988 43.8835 151.98 44.002H160.946V43.652C160.542 43.5755 160.171 43.5365 159.821 43.4315C159.348 43.3269 158.928 43.0561 158.637 42.6682C158.347 42.2803 158.205 41.801 158.238 41.3175C158.231 39.4435 158.238 37.5675 158.238 35.6945C158.244 35.5962 158.255 35.4982 158.27 35.401C158.633 35.6875 158.952 35.956 159.288 36.201C159.848 36.6403 160.532 36.8918 161.243 36.9198C161.955 36.9478 162.657 36.7508 163.249 36.357C163.85 36.0058 164.376 35.5404 164.797 34.987C166.308 33.0262 167.21 30.6655 167.393 28.197C167.487 26.8596 167.33 25.5165 166.929 24.237M163.437 29.687C163.418 31.0608 163.207 32.4251 162.81 33.7405C162.674 34.1721 162.495 34.5892 162.276 34.9855C162.105 35.2856 161.882 35.5531 161.618 35.776C161.46 35.9135 161.276 36.0181 161.076 36.0839C160.877 36.1496 160.667 36.1752 160.457 36.1591C160.248 36.143 160.044 36.0856 159.857 35.9901C159.67 35.8947 159.504 35.7631 159.368 35.603C159.072 35.2577 158.851 34.8547 158.718 34.4195C158.419 33.4993 158.253 32.5412 158.223 31.574C158.173 30.4545 158.16 29.3325 158.137 28.4555C158.168 27.101 158.178 25.991 158.225 24.8825C158.254 23.8438 158.42 22.8135 158.717 21.818C158.85 21.3588 159.059 20.925 159.334 20.5345C159.627 20.106 160.073 19.8058 160.58 19.6955C160.854 19.6225 161.143 19.632 161.412 19.7229C161.68 19.8139 161.915 19.9821 162.088 20.2065C162.323 20.5062 162.518 20.8355 162.667 21.186C162.968 21.94 163.162 22.7323 163.244 23.54C163.482 25.5797 163.548 27.6359 163.439 29.6865" fill="black"/>
<path d="M123.846 36.99C123.747 36.3073 123.489 35.6572 123.094 35.0923C122.698 34.5273 122.175 34.0633 121.567 33.7375C120.922 33.3715 120.22 33.1158 119.491 32.981C118.388 32.785 117.274 32.6475 116.167 32.47C115.696 32.3979 115.228 32.3006 114.767 32.1785C114.55 32.114 114.35 32.0031 114.18 31.8535C114.11 31.8027 114.053 31.7363 114.013 31.6596C113.973 31.5829 113.952 31.498 113.95 31.4115C113.949 31.3251 113.968 31.2395 114.005 31.1615C114.043 31.0836 114.098 31.0155 114.166 30.9625C114.25 30.878 114.34 30.7985 114.419 30.7085C114.469 30.6513 114.53 30.6049 114.599 30.5721C114.668 30.5392 114.742 30.5207 114.819 30.5175C115.839 30.409 116.861 30.306 117.877 30.164C118.779 30.0529 119.656 29.7893 120.47 29.3845C121.385 28.9462 122.101 28.1783 122.475 27.2345C122.972 25.9946 123.061 24.6286 122.73 23.3345C122.536 22.5792 122.178 21.8763 121.68 21.2763C121.182 20.6763 120.557 20.1943 119.851 19.865C119.73 19.803 119.609 19.7425 119.428 19.651C119.615 19.584 119.734 19.54 119.855 19.498C120.517 19.2898 121.134 18.9594 121.675 18.524C122.089 18.2094 122.374 17.7538 122.475 17.2435C122.592 16.5784 122.472 15.8933 122.136 15.3075C122.018 15.0916 121.856 14.9028 121.66 14.7535C121.464 14.6043 121.24 14.4978 121 14.441C120.472 14.3125 119.917 14.3653 119.423 14.591C119.166 14.6931 118.939 14.8596 118.764 15.0747C118.59 15.2897 118.473 15.546 118.427 15.819C118.333 16.181 118.352 16.5627 118.48 16.914C118.608 17.2652 118.839 17.5694 119.144 17.7865C119.355 17.941 119.567 18.094 119.78 18.248C119.779 18.3873 119.736 18.5231 119.657 18.6379C119.579 18.7527 119.467 18.841 119.337 18.8915C119.07 19.0229 118.794 19.1348 118.511 19.2265C117.735 19.4125 116.953 19.5765 116.169 19.7225C115.438 19.8294 114.718 19.9981 114.016 20.227C113.447 20.4206 112.936 20.7523 112.528 21.1922C112.119 21.6321 111.826 22.1665 111.675 22.7475C111.431 23.6109 111.338 24.5099 111.399 25.405C111.427 26.1427 111.63 26.863 111.993 27.5059C112.356 28.1488 112.867 28.6955 113.485 29.1005C113.808 29.324 114.157 29.5095 114.494 29.711C114.582 29.764 114.673 29.811 114.808 29.8885C114.673 29.9545 114.582 30 114.49 30.044C114.04 30.2605 113.579 30.463 113.137 30.694C112.689 30.923 112.284 31.229 111.942 31.598C111.629 31.9148 111.421 32.3202 111.347 32.7592C111.272 33.1981 111.334 33.6495 111.524 34.052C111.733 34.4846 112.056 34.8525 112.457 35.117C113.052 35.5198 113.728 35.7872 114.438 35.9005C114.514 35.9227 114.589 35.9505 114.662 35.9835C114.441 36.103 114.279 36.2015 114.108 36.2835C113.698 36.4755 113.277 36.6465 112.872 36.8495C112.485 37.0349 112.11 37.2444 111.75 37.477C111.462 37.6605 111.215 37.902 111.026 38.1861C110.836 38.4702 110.708 38.7906 110.65 39.127C110.563 39.5743 110.583 40.0356 110.706 40.4741C110.83 40.9126 111.054 41.3161 111.362 41.6525C111.757 42.1025 112.228 42.4795 112.753 42.7665C113.609 43.243 114.534 43.5834 115.495 43.7755L116.539 43.9965H117.831C118.015 43.9495 118.196 43.8905 118.381 43.858C119.575 43.6586 120.704 43.175 121.673 42.448C122.72 41.7154 123.476 40.6371 123.808 39.4025C123.991 38.6087 124.002 37.785 123.841 36.9865M114.971 24.868C114.936 23.9135 115.027 22.9585 115.242 22.028C115.339 21.5838 115.515 21.1605 115.761 20.778C115.898 20.5435 116.093 20.3483 116.327 20.2111C116.561 20.074 116.827 19.9996 117.099 19.9951C117.37 19.9906 117.638 20.0562 117.877 20.1856C118.115 20.3149 118.317 20.5036 118.461 20.7335C118.837 21.2895 119.079 21.9252 119.168 22.5905C119.485 24.3947 119.397 26.247 118.911 28.013C118.802 28.3908 118.644 28.7524 118.44 29.0885C118.343 29.2582 118.211 29.4054 118.053 29.5203C117.895 29.6352 117.714 29.7151 117.523 29.7547C117.332 29.7943 117.134 29.7928 116.944 29.7502C116.753 29.7076 116.574 29.6248 116.418 29.5075C116.097 29.2968 115.838 29.0042 115.668 28.66C115.38 28.1093 115.189 27.513 115.104 26.8975C115.049 26.5565 115.001 26.2125 114.98 25.868C114.959 25.5355 114.975 25.2 114.975 24.868M121.675 41.488C121.304 41.9878 120.826 42.3979 120.275 42.688C119.403 43.163 118.435 43.4363 117.443 43.488C116.941 43.5077 116.44 43.44 115.962 43.288C115.06 43.0446 114.224 42.6034 113.514 41.9965C113.234 41.7898 113.003 41.5241 112.838 41.2184C112.672 40.9127 112.575 40.5742 112.554 40.227C112.534 39.6942 112.631 39.1634 112.839 38.6723C113.047 38.1812 113.36 37.7419 113.757 37.3855C114.474 36.7419 115.392 36.3665 116.354 36.323C116.532 36.311 116.712 36.323 116.891 36.323C117.991 36.3138 119.082 36.5313 120.094 36.962C120.534 37.1468 120.94 37.4048 121.294 37.725C121.814 38.193 122.141 38.8376 122.211 39.5334C122.281 40.2291 122.09 40.9261 121.674 41.4885" fill="black"/>
<path d="M153.36 34.201C153.291 34.4418 153.172 34.6652 153.01 34.8566C152.849 35.0479 152.648 35.2028 152.422 35.311C152.291 35.3838 152.145 35.4281 151.995 35.441C151.845 35.4539 151.693 35.435 151.551 35.3857C151.409 35.3364 151.278 35.2577 151.168 35.1547C151.058 35.0517 150.971 34.9268 150.913 34.788C150.839 34.6513 150.787 34.5043 150.757 34.352C150.691 33.9769 150.651 33.5977 150.638 33.217C150.628 29.995 150.632 26.772 150.631 23.5495C150.631 23.2875 150.634 23.024 150.614 22.763C150.56 21.714 150.11 20.7246 149.355 19.994C148.747 19.4135 147.999 19.0002 147.184 18.794C146.02 18.4989 144.803 18.486 143.634 18.7565C142.597 18.9456 141.614 19.3599 140.754 19.97C140.318 20.2665 139.951 20.653 139.677 21.1035C139.403 21.554 139.228 22.058 139.165 22.5815C139.109 22.986 139.151 23.3983 139.289 23.7828C139.427 24.1673 139.656 24.5126 139.957 24.7889C140.258 25.0652 140.621 25.2644 141.016 25.3691C141.411 25.4739 141.825 25.4813 142.223 25.3905C142.696 25.2853 143.123 25.0349 143.446 24.6746C143.769 24.3142 143.971 23.8619 144.023 23.381C144.12 22.9332 144.079 22.4666 143.905 22.0428C143.73 21.6191 143.432 21.2581 143.048 21.0075C142.935 20.9403 142.84 20.847 142.771 20.7355C142.701 20.6239 142.66 20.4974 142.649 20.3664C142.639 20.2354 142.66 20.1039 142.711 19.9827C142.761 19.8615 142.841 19.7543 142.941 19.67C143.196 19.4333 143.507 19.265 143.845 19.181C144.323 19.0066 144.851 19.024 145.317 19.2297C145.783 19.4354 146.151 19.8134 146.345 20.2845C146.451 20.511 146.536 20.7469 146.599 20.989C146.813 21.8237 146.879 22.689 146.796 23.5465C146.766 24.1954 146.56 24.8237 146.198 25.3635C145.837 25.9033 145.335 26.334 144.746 26.609C144.493 26.7417 144.232 26.8599 143.965 26.963C143.362 27.187 142.751 27.391 142.144 27.605C141.424 27.8266 140.741 28.1519 140.115 28.5705C139.429 29.0449 138.952 29.7649 138.782 30.5815C138.47 32.0063 138.677 33.4957 139.365 34.7815C139.646 35.34 140.063 35.8186 140.578 36.173C141.206 36.6062 141.939 36.8635 142.7 36.918C143.461 36.9725 144.223 36.8223 144.906 36.483C145.324 36.317 145.704 36.0672 146.021 35.749C146.339 35.4309 146.588 35.0511 146.754 34.633C146.759 34.621 146.788 34.6185 146.823 34.606C146.915 34.7815 147.002 34.963 147.1 35.1375C147.306 35.537 147.592 35.8899 147.94 36.1745C148.288 36.4591 148.69 36.6693 149.122 36.792C149.75 36.9519 150.407 36.9632 151.04 36.825C151.672 36.7363 152.264 36.463 152.741 36.0393C153.218 35.6157 153.56 35.0605 153.723 34.4435C153.741 34.3639 153.754 34.2832 153.762 34.202L153.36 34.201ZM146.724 29.925C146.724 30.831 146.728 31.737 146.724 32.643C146.736 33.0848 146.672 33.5252 146.537 33.946C146.403 34.3913 146.11 34.7718 145.713 35.0156C145.317 35.2595 144.846 35.3498 144.387 35.2695C144.03 35.2122 143.708 35.0208 143.487 34.7345C143.15 34.3149 142.909 33.8264 142.782 33.3035C142.509 32.3856 142.462 31.4153 142.646 30.4755C142.756 29.9117 142.993 29.3802 143.338 28.9215C143.906 28.1528 144.568 27.4579 145.307 26.853C145.6 26.6299 145.916 26.4399 146.25 26.2865C146.482 26.1745 146.605 26.2495 146.676 26.501C146.725 26.6847 146.749 26.8739 146.749 27.064C146.756 28.018 146.752 28.9715 146.752 29.9255L146.724 29.925Z" fill="black"/>
<path d="M90.8575 24.745C90.604 23.4517 90.0543 22.2347 89.2515 21.1895C88.6707 20.4119 87.8582 19.8385 86.9309 19.5519C86.0036 19.2653 85.0093 19.2802 84.091 19.5945C82.9689 19.9674 81.9979 20.6939 81.3235 21.665C80.4388 22.8127 79.7995 24.13 79.4451 25.5351C79.0908 26.9401 79.0289 28.403 79.2635 29.833C79.521 31.5414 80.2039 33.1576 81.2495 34.533C81.8704 35.3885 82.7046 36.0663 83.669 36.499C84.6075 36.9422 85.674 37.0331 86.674 36.755C87.4657 36.5046 88.1701 36.0348 88.7055 35.4C89.8984 34.0473 90.6456 32.36 90.8455 30.5675C90.8669 30.2606 90.8688 29.9527 90.851 29.6455H90.501C90.401 30.3085 90.342 30.927 90.2145 31.532C89.9966 32.6994 89.512 33.8007 88.7985 34.75C88.4118 35.2876 87.8798 35.7039 87.265 35.95C86.035 36.4 84.8975 36.138 84.165 34.9945C83.9141 34.5895 83.7071 34.1589 83.5475 33.71C83.2283 32.7837 83.039 31.8177 82.985 30.8395C82.926 30.0895 82.91 29.3395 82.8995 28.5865C82.8925 28.062 82.9305 28.0365 83.442 28.0245C84.063 28.0125 84.6845 28.0085 85.3065 28.008C87.0278 28.0057 88.7491 28.0057 90.4705 28.008C90.848 28.008 90.899 27.983 90.997 27.6195C91.0543 27.4009 91.0858 27.1764 91.091 26.9505C91.1039 26.2104 91.0259 25.4715 90.8585 24.7505M86.543 27.317H85.218V27.33H83.678C83.122 27.33 82.978 27.23 82.9615 26.685C82.94 26.031 82.945 25.374 82.983 24.721C83.0151 23.8745 83.1574 23.0357 83.4065 22.226C83.555 21.7751 83.747 21.3397 83.98 20.926C84.1291 20.682 84.3302 20.4739 84.569 20.3165C84.8303 20.1306 85.1516 20.0489 85.47 20.0876C85.7883 20.1263 86.0808 20.2824 86.29 20.5255C86.5369 20.8015 86.7254 21.1247 86.844 21.4755C87.0813 22.1131 87.2251 22.7817 87.271 23.4605C87.3405 24.4605 87.378 25.4605 87.402 26.4605C87.4215 27.2855 87.373 27.317 86.543 27.317Z" fill="black"/>
<path d="M102.558 28.0175C104.697 28.0112 106.836 28.0068 108.975 28.0045C109.178 28.0045 109.382 27.993 109.585 28.0075C109.626 28.0156 109.668 28.0153 109.71 28.0068C109.751 27.9982 109.79 27.9815 109.825 27.9577C109.859 27.9339 109.889 27.9033 109.911 27.8679C109.934 27.8325 109.95 27.7929 109.957 27.7515C110.032 27.5021 110.079 27.2447 110.095 26.9845C110.097 26.5077 110.067 26.0314 110.006 25.5585C109.849 24.2875 109.433 23.0622 108.784 21.9585C108.377 21.252 107.825 20.64 107.164 20.163C106.369 19.6219 105.426 19.3392 104.463 19.3534C103.501 19.3676 102.567 19.6781 101.788 20.2425C100.962 20.8199 100.274 21.5724 99.7727 22.4465C98.4181 24.6127 97.8792 27.1906 98.2527 29.718C98.4952 31.4266 99.1537 33.0495 100.17 34.444C100.804 35.3498 101.675 36.0643 102.687 36.5095C103.629 36.9461 104.695 37.0318 105.694 36.751C106.507 36.4892 107.228 35.9993 107.77 35.3395C108.924 34.002 109.65 32.3491 109.854 30.5945C109.915 30.283 109.913 29.9625 109.85 29.6515H109.443C109.429 29.794 109.421 29.912 109.405 30.0295C109.323 30.607 109.273 31.192 109.147 31.7605C108.935 32.8172 108.496 33.8154 107.861 34.6865C107.476 35.2388 106.941 35.6696 106.319 35.9285C105.772 36.1852 105.15 36.2349 104.569 36.0683C103.988 35.9018 103.487 35.5302 103.158 35.0225C102.869 34.5981 102.641 34.1353 102.481 33.6475C102.165 32.6831 101.975 31.6817 101.918 30.6685C101.856 29.7996 101.864 28.9271 101.942 28.0595C102.161 28.0435 102.36 28.018 102.559 28.017M102.5 21.9285C102.647 21.3967 102.924 20.9096 103.305 20.5105C103.437 20.3655 103.598 20.2512 103.779 20.1755C103.959 20.0999 104.154 20.0648 104.35 20.0728C104.545 20.0808 104.737 20.1316 104.91 20.2216C105.084 20.3117 105.236 20.4388 105.355 20.594C105.534 20.8025 105.677 21.039 105.779 21.294C105.932 21.6939 106.055 22.1049 106.147 22.5235C106.339 23.5681 106.428 24.6294 106.41 25.6915C106.419 26.1086 106.406 26.5258 106.371 26.9415C106.343 27.2615 106.278 27.307 105.959 27.3085C104.848 27.3142 103.737 27.3142 102.626 27.3085C102.428 27.296 102.231 27.2719 102.036 27.2365C101.984 27.0006 101.946 26.7616 101.923 26.521C101.844 24.9688 102.039 23.4148 102.5 21.9305" fill="black"/>
<path d="M55.3394 24.346C55.0608 23.1187 54.4992 21.9736 53.6993 21.002C53.1038 20.2828 52.3024 19.7629 51.4029 19.5122C50.5033 19.2615 49.5486 19.292 48.6669 19.5995C47.6261 19.9464 46.7174 20.6055 46.0644 21.487C45.1297 22.6489 44.4509 23.9951 44.0726 25.4375C43.6942 26.8799 43.6248 28.3859 43.8689 29.857C44.108 31.4574 44.7196 32.9792 45.6543 34.3C46.2635 35.2081 47.1011 35.9396 48.0829 36.421C49.0818 36.9369 50.2401 37.0517 51.3209 36.742C52.2124 36.4444 52.9903 35.8788 53.5484 35.1225C54.5756 33.8223 55.2191 32.2609 55.4063 30.6145C55.4286 30.2915 55.4306 29.9673 55.4124 29.644C55.351 29.6351 55.2893 29.6294 55.2273 29.627C55.1672 29.6302 55.1073 29.6367 55.0479 29.6465C54.9809 30.1925 54.9409 30.704 54.8534 31.207C54.6715 32.4027 54.2275 33.5434 53.5534 34.5475C53.1868 35.1125 52.6728 35.5665 52.0668 35.8605C51.5036 36.1691 50.8434 36.2497 50.2225 36.0855C49.6016 35.9214 49.0675 35.5251 48.7304 34.9785C48.4752 34.5901 48.2676 34.1724 48.1119 33.7345C47.5601 32.0512 47.3516 30.2743 47.4989 28.509C47.5074 28.368 47.5299 28.228 47.5489 28.059C47.7264 28.043 47.8904 28.017 48.0549 28.016C49.3339 28.0073 50.6129 28.002 51.8919 28C52.9419 28 53.9959 28 55.0479 28C55.3979 28 55.4559 27.979 55.5429 27.666C55.6096 27.4254 55.6465 27.1776 55.6529 26.928C55.6684 26.0556 55.5626 25.1853 55.3383 24.342M51.9883 26.734C51.9584 27.222 51.8704 27.3065 51.3769 27.3075C50.3974 27.3075 49.4179 27.3135 48.4379 27.3075C48.1779 27.3075 47.9179 27.269 47.6039 27.2435C47.5462 26.8755 47.5086 26.5046 47.4913 26.1325C47.4647 24.7712 47.6489 23.414 48.0374 22.109C48.1866 21.6827 48.3742 21.2709 48.5979 20.8785C48.7654 20.5709 49.0322 20.3291 49.3549 20.1925C49.5947 20.0804 49.8637 20.0465 50.1238 20.0955C50.384 20.1445 50.6222 20.2739 50.8049 20.4655C51.0797 20.7495 51.288 21.0911 51.4144 21.4655C51.6966 22.2396 51.8612 23.0516 51.9029 23.8745C51.9614 24.7545 51.9654 25.638 51.9924 26.5195C51.9924 26.591 51.9929 26.663 51.9883 26.734Z" fill="black"/>
</g>
</g>
<defs>
<clipPath id="clip0_1941_868">
<rect width="171.5" height="32" fill="white" transform="translate(12 12)"/>
</clipPath>
</defs>
</svg>
